<svg width="80" height="80" fill="none" xmlns="http://www.w3.org/2000/svg"><rect width="80" height="80" rx="5" fill="#D1327F"/><path d="M26.36 14.16a1.405 1.405 0 0 0-1.992 0l-7.462 7.42-2.66-2.593a1.406 1.406 0 0 0-1.992 0l-1.84 1.842a1.406 1.406 0 0 0 0 1.992l5.577 5.555a1.498 1.498 0 0 0 2.063 0l1.827-1.83 8.461-8.46a1.417 1.417 0 0 0 .01-1.992L26.36 14.16Zm0 18.655a1.404 1.404 0 0 0-1.992 0l-7.462 7.468-2.66-2.59a1.406 1.406 0 0 0-1.992 0l-1.84 1.838a1.405 1.405 0 0 0 0 1.992l5.563 5.567a1.496 1.496 0 0 0 2.062 0l1.84-1.839 8.46-8.463a1.406 1.406 0 0 0 .011-1.98l-1.99-1.993Zm-8.86 20.31c-3.104 0-5.694 2.52-5.694 5.625s2.592 5.625 5.694 5.625a5.625 5.625 0 1 0 0-11.25ZM68.125 55h-33.75a1.875 1.875 0 0 0-1.875 1.875v3.75a1.875 1.875 0 0 0 1.875 1.875h33.75A1.875 1.875 0 0 0 70 60.625v-3.75A1.875 1.875 0 0 0 68.125 55Zm0-37.5h-33.75a1.875 1.875 0 0 0-1.875 1.875v3.75A1.875 1.875 0 0 0 34.375 25h33.75A1.875 1.875 0 0 0 70 23.125v-3.75a1.875 1.875 0 0 0-1.875-1.875Zm0 18.75h-33.75a1.875 1.875 0 0 0-1.875 1.875v3.75a1.875 1.875 0 0 0 1.875 1.875h33.75A1.875 1.875 0 0 0 70 41.875v-3.75a1.875 1.875 0 0 0-1.875-1.875Z" fill="#F1EDF3"/></svg>