<svg width="80" height="80" fill="none" xmlns="http://www.w3.org/2000/svg"><rect width="80" height="80" rx="5" fill="#D1327F"/><g clip-path="url(#a)"><path d="M40 10a30 30 0 1 0 0 60 30 30 0 0 0 0-60Zm25 27.5H55a15 15 0 0 0-12.5-12.3v-10A25 25 0 0 1 65 37.5ZM40 30a10 10 0 1 1 0 20 10 10 0 0 1 0-20ZM15 40a25 25 0 0 1 22.5-24.875v10A15 15 0 1 0 48.7 52.15l7.125 7.15A25 25 0 0 1 15 40Zm44.375 15.825-7.15-7.125a15 15 0 0 0 2.5-6.2h10a24.675 24.675 0 0 1-5.35 13.325Z" fill="#F1EDF3"/></g><defs><clipPath id="a"><path fill="#fff" transform="translate(10 10)" d="M0 0h60v60H0z"/></clipPath></defs></svg>