<svg width="80" height="80" fill="none" xmlns="http://www.w3.org/2000/svg"><rect width="80" height="80" rx="5" fill="#D1327F"/><g clip-path="url(#a)"><path fill-rule="evenodd" clip-rule="evenodd" d="M63.86 29.98c-2.266-.594-7.593-.587-15.385-.793.368-1.7.453-3.234.453-5.956C48.928 16.727 44.191 11 40 11c-2.96 0-5.4 2.42-5.438 5.396-.04 3.65-1.169 9.954-7.25 13.151-.445.236-1.721.865-1.908.946l.096.082c-.952-.821-2.271-1.45-3.625-1.45h-5.438A5.444 5.444 0 0 0 11 34.563v29A5.444 5.444 0 0 0 16.438 69h5.437c2.157 0 3.962-1.303 4.836-3.13.022.007.06.018.085.022l.433.112.084.022c1.044.259 3.054.74 7.35 1.727.92.21 5.785 1.247 10.823 1.247h9.91c3.019 0 5.196-1.162 6.492-3.495.018-.036.435-.85.776-1.95.255-.828.35-2 .041-3.19 1.947-1.337 2.574-3.36 2.982-4.676.683-2.159.478-3.78.003-4.943 1.095-1.033 2.029-2.608 2.422-5.013a6.81 6.81 0 0 0-.705-4.3c1.026-1.152 1.493-2.602 1.548-3.943l.021-.38c.013-.237.024-.383.024-.905 0-2.29-1.586-5.21-5.14-6.224ZM23.688 63.563a1.81 1.81 0 0 1-1.813 1.813h-5.438a1.81 1.81 0 0 1-1.812-1.813v-29a1.81 1.81 0 0 1 1.813-1.812h5.437a1.81 1.81 0 0 1 1.813 1.813v29Zm41.645-26.217C65.297 38.24 64.922 40 61.75 40h-3.625a.905.905 0 1 0 0 1.813h3.513c2.718 0 3.075 2.254 2.9 3.342-.225 1.352-.86 3.907-3.92 3.907h-4.306a.907.907 0 0 0 0 1.813h3.57c3.059 0 2.789 2.333 2.35 3.725-.578 1.828-.931 3.525-4.787 3.525H54.49a.907.907 0 0 0 0 1.813h2.842c1.983 0 2.075 1.875 1.869 2.548-.227.736-.495 1.281-.506 1.307-.547.988-1.43 1.582-3.299 1.582h-9.909c-4.977 0-9.914-1.13-10.04-1.158-7.53-1.735-7.927-1.869-8.4-2.003 0 0-1.533-.26-1.533-1.597L25.5 35.583c0-.85.542-1.619 1.44-1.889.111-.043.264-.09.372-.136 8.28-3.429 10.801-10.947 10.875-17.12.011-.869.68-1.813 1.813-1.813 1.916 0 5.303 3.846 5.303 8.606 0 4.297-.174 5.04-1.678 9.519 18.125 0 17.998.261 19.597.68 1.983.567 2.153 2.21 2.153 2.775 0 .621-.018.53-.042 1.14Z" fill="#F1EDF3" stroke="#F1EDF3"/></g><defs><clipPath id="a"><path fill="#fff" transform="translate(10 10)" d="M0 0h60v60H0z"/></clipPath></defs></svg>