<svg width="80" height="80" viewBox="0 0 80 80" fill="none" xmlns="http://www.w3.org/2000/svg">
<rect width="80" height="80" rx="5" fill="#D1327F"/>
<g clip-path="url(#clip0_110_7)">
<path d="M60.8597 19.1403C55.3273 13.608 47.8239 10.5 40 10.5H39.5V10.5042C33.8401 10.6001 28.3233 12.3228 23.6107 15.4716C18.7594 18.7131 14.9784 23.3204 12.7456 28.7108C10.5128 34.1013 9.92858 40.0327 11.0668 45.7552C12.2051 51.4776 15.0147 56.734 19.1404 60.8596C23.266 64.9853 28.5224 67.7949 34.2448 68.9332C39.9673 70.0714 45.8987 69.4872 51.2892 67.2544C56.6796 65.0216 61.2869 61.2406 64.5284 56.3893C67.7699 51.5381 69.5 45.8345 69.5 40C69.5 32.1761 66.392 24.6727 60.8597 19.1403ZM42.3125 58.125V57.625H41.8125H38.1875H37.6875V58.125V64.7409C31.9288 64.1977 26.5328 61.6632 22.4348 57.5652C18.3368 53.4672 15.8023 48.0712 15.2591 42.3125H21.875H22.375V41.8125V38.1875V37.6875H21.875H15.2591C15.8023 31.9288 18.3368 26.5328 22.4348 22.4348C26.5328 18.3368 31.9288 15.8023 37.6875 15.2591V21.875V22.375H38.1875H41.8125H42.3125V21.875V15.2591C48.0712 15.8023 53.4672 18.3368 57.5652 22.4348C61.6632 26.5328 64.1977 31.9288 64.7409 37.6875H58.125H57.625V38.1875V41.8125V42.3125H58.125H64.7409C64.1977 48.0712 61.6632 53.4672 57.5652 57.5652C53.4672 61.6632 48.0712 64.1977 42.3125 64.7409V58.125Z" fill="#F1EDF3" stroke="#F1EDF3"/>
<path d="M41.3992 26.875H37.5834V40C37.582 40.2468 37.6301 40.4914 37.725 40.7198C37.82 40.9483 37.9599 41.156 38.1367 41.3312L47.6762 50.7062L50.3663 48.0625L41.3992 39.2313V26.875Z" fill="#F1EDF3"/>
</g>
<defs>
<clipPath id="clip0_110_7">
<rect width="60" height="60" fill="white" transform="translate(10 10)"/>
</clipPath>
</defs>
</svg>
