<svg width="80" height="80" fill="none" xmlns="http://www.w3.org/2000/svg"><rect width="80" height="80" rx="5" fill="#D1327F"/><g clip-path="url(#a)" fill="#F1EDF3"><path d="M60.86 19.14A29.5 29.5 0 0 0 40 10.5h-.5v.004a29.5 29.5 0 1 0 21.36 8.636ZM42.313 58.125v-.5h-4.626v7.116A24.875 24.875 0 0 1 15.26 42.313h7.116v-4.626H15.26A24.875 24.875 0 0 1 37.687 15.26v7.116h4.626V15.26A24.875 24.875 0 0 1 64.74 37.687h-7.116v4.626h7.116A24.875 24.875 0 0 1 42.313 64.74v-6.616Z" stroke="#F1EDF3"/><path d="M41.4 26.875h-3.817V40a1.848 1.848 0 0 0 .554 1.331l9.54 9.375 2.69-2.644-8.968-8.83V26.874Z"/></g><defs><clipPath id="a"><path fill="#fff" transform="translate(10 10)" d="M0 0h60v60H0z"/></clipPath></defs></svg>