<svg width="80" height="80" fill="none" xmlns="http://www.w3.org/2000/svg"><rect width="80" height="80" rx="5" fill="#D1327F"/><g clip-path="url(#a)" fill="#F1EDF3"><path d="M57.5 10h-35A12.515 12.515 0 0 0 10 22.5v35A12.515 12.515 0 0 0 22.5 70h35A12.515 12.515 0 0 0 70 57.5v-35A12.515 12.515 0 0 0 57.5 10ZM65 57.5a7.5 7.5 0 0 1-7.5 7.5h-35a7.5 7.5 0 0 1-7.5-7.5v-35a7.5 7.5 0 0 1 7.5-7.5h35a7.5 7.5 0 0 1 7.5 7.5v35Z"/><path d="M57.5 27.5h-35a2.5 2.5 0 0 0 0 5h35a2.5 2.5 0 0 0 0-5Zm-35-2.5a2.5 2.5 0 1 0 0-5 2.5 2.5 0 0 0 0 5Zm10 0a2.5 2.5 0 1 0 0-5 2.5 2.5 0 0 0 0 5Zm25 0a2.5 2.5 0 1 0 0-5 2.5 2.5 0 0 0 0 5Z"/></g><defs><clipPath id="a"><path fill="#fff" transform="translate(10 10)" d="M0 0h60v60H0z"/></clipPath></defs></svg>