<svg width="80" height="80" fill="none" xmlns="http://www.w3.org/2000/svg"><rect width="80" height="80" rx="5" fill="#D1327F"/><path d="M42.852 27.24a1.267 1.267 0 1 1 2.531 0 5.92 5.92 0 0 1-4.647 5.773v9.625h4.5a1.65 1.65 0 0 0 1.639-1.706 4.53 4.53 0 0 1 1.648-3.92 14.222 14.222 0 1 0-18.36-.214c.274.236.526.495.755.774a5.392 5.392 0 0 1 1.115 3.425 1.641 1.641 0 0 0 1.64 1.641h4.532v-9.625a5.92 5.92 0 0 1-4.646-5.772 1.263 1.263 0 0 1 1.266-1.297 1.266 1.266 0 0 1 1.265 1.297 3.382 3.382 0 0 0 6.763 0Zm18.739 26.167-4.865-6.809a1.265 1.265 0 0 0-1.03-.53H40.524l6.16 8.733 14.18.017a.892.892 0 0 0 .727-1.41ZM23.01 46.598l-4.825 6.753a.891.891 0 0 0 .725 1.411l14.132.018 6.178-8.712H24.04a1.266 1.266 0 0 0-1.03.53Z" fill="#F1EDF3"/><path d="M33.695 57.313h-.001l-11.295.009v9.915a1.64 1.64 0 0 0 1.64 1.64h14.564v-17.56l-3.874 5.463a1.268 1.268 0 0 1-1.034.534Zm11.298-.518-3.86-5.471v17.554h14.563a1.64 1.64 0 0 0 1.641-1.641v-9.892l-11.311-.014a1.268 1.268 0 0 1-1.033-.536Z" fill="#F1EDF3"/></svg>