<svg width="32" height="32" fill="none" xmlns="http://www.w3.org/2000/svg"><path d="M27.948 21.333h-16.76a1.25 1.25 0 0 1-.765-.26 1.19 1.19 0 0 1-.431-.669L7.17 8.426a1.164 1.164 0 0 1 .235-1.011 1.23 1.23 0 0 1 .959-.451h22.408c.184 0 .367.04.533.118.166.078.312.191.427.332a1.18 1.18 0 0 1 .237 1.012l-2.827 11.978c-.062.264-.213.5-.43.669a1.25 1.25 0 0 1-.764.26Zm-15.784-2.388h14.808l2.26-9.59H9.903l2.262 9.59ZM13.587 32a4.785 4.785 0 0 1-2.61-.77 4.603 4.603 0 0 1-1.729-2.054 4.466 4.466 0 0 1-.267-2.644 4.54 4.54 0 0 1 1.285-2.343 4.736 4.736 0 0 1 2.405-1.252 4.812 4.812 0 0 1 2.713.26 4.672 4.672 0 0 1 2.107 1.686c.516.752.792 1.637.792 2.542a4.522 4.522 0 0 1-1.377 3.234A4.765 4.765 0 0 1 13.586 32Zm0-6.762c-.444 0-.878.128-1.248.369a2.2 2.2 0 0 0-.827.982c-.17.4-.214.84-.127 1.264.087.424.3.814.614 1.12a2.27 2.27 0 0 0 1.15.598 2.3 2.3 0 0 0 1.297-.125 2.24 2.24 0 0 0 1.008-.806c.246-.36.378-.783.378-1.215a2.16 2.16 0 0 0-.659-1.546c-.42-.41-.991-.64-1.586-.641ZM25.549 32a4.785 4.785 0 0 1-2.61-.77 4.603 4.603 0 0 1-1.729-2.054 4.466 4.466 0 0 1-.267-2.644 4.54 4.54 0 0 1 1.285-2.343 4.736 4.736 0 0 1 2.405-1.252 4.812 4.812 0 0 1 2.713.26 4.672 4.672 0 0 1 2.107 1.686c.517.752.792 1.637.792 2.542a4.522 4.522 0 0 1-1.377 3.234A4.765 4.765 0 0 1 25.548 32Zm0-6.762c-.444 0-.878.128-1.247.369a2.2 2.2 0 0 0-.827.982c-.17.4-.215.84-.128 1.264.087.424.3.814.615 1.12.314.305.714.514 1.15.598a2.3 2.3 0 0 0 1.297-.125c.41-.166.76-.446 1.007-.806.247-.36.378-.783.378-1.215a2.16 2.16 0 0 0-.658-1.546 2.28 2.28 0 0 0-1.587-.641Z" fill="#F1EDF3"/><path d="M8.364 9.352c-.257 0-.508-.078-.716-.225a1.197 1.197 0 0 1-.446-.591l-2.1-6.148H1.224c-.325 0-.636-.126-.866-.35A1.179 1.179 0 0 1 0 1.194C0 .877.13.574.359.35.589.126.9 0 1.225 0H5.99c.257 0 .507.079.716.225.209.147.365.354.446.592l2.38 6.964a1.165 1.165 0 0 1-.169 1.076 1.217 1.217 0 0 1-.435.364 1.252 1.252 0 0 1-.559.131h-.004Z" fill="#F1EDF3"/></svg>