<svg width="32" height="32" fill="none" xmlns="http://www.w3.org/2000/svg"><path d="M30.948 15.636a3.696 3.696 0 0 0 .872-3.723 3.535 3.535 0 0 0-2.833-2.473l-6.45-.96a.683.683 0 0 1-.523-.393l-2.906-6.065A3.475 3.475 0 0 0 16.014 0a3.44 3.44 0 0 0-3.153 2.036l-2.905 6.08a.669.669 0 0 1-.523.393L2.997 9.513a3.485 3.485 0 0 0-2.818 2.473 3.684 3.684 0 0 0 .886 3.723l4.78 4.727a.712.712 0 0 1 .203.626l-1.09 6.69a3.684 3.684 0 0 0 1.453 3.55c.583.45 1.298.696 2.034.698a3.484 3.484 0 0 0 1.641-.422l5.812-3.17a.653.653 0 0 1 .653 0l5.811 3.141a3.382 3.382 0 0 0 3.676-.29 3.709 3.709 0 0 0 1.453-3.564l-1.12-6.677a.743.743 0 0 1 .19-.64l4.387-4.742Zm-6.625 2.662a3.755 3.755 0 0 0-1.046 3.215l1.12 6.69a.7.7 0 0 1-.262.699.667.667 0 0 1-.727 0l-5.81-3.142a3.396 3.396 0 0 0-3.255 0l-5.811 3.17a.667.667 0 0 1-.726 0 .684.684 0 0 1-.276-.697l1.22-6.677a3.757 3.757 0 0 0-1.002-3.214l-4.693-4.727a.713.713 0 0 1-.116-.728.699.699 0 0 1 .566-.494l6.436-.99a3.486 3.486 0 0 0 2.557-1.992l2.906-6.095a.67.67 0 0 1 .61-.407.668.668 0 0 1 .624.393l2.906 6.08a3.535 3.535 0 0 0 2.63 1.978l6.45.96a.653.653 0 0 1 .552.48.7.7 0 0 1-.175.742l-4.678 4.756Z" fill="#F1EDF3"/></svg>