<svg width="22" height="23" fill="none" xmlns="http://www.w3.org/2000/svg"><path d="m7.247 18.096 2.92 3.185a1.125 1.125 0 0 0 1.658 0l2.928-3.194c.166-.18.4-.283.645-.283h4.399c.742 0 1.328-.656 1.328-1.438V3.313c0-.782-.586-1.438-1.328-1.438H2.203c-.742 0-1.328.656-1.328 1.438v13.062c0 .782.586 1.438 1.328 1.438h4.399c.245 0 .48.102.645.283ZM1.935 3.312c0-.175.128-.303.268-.303h17.594c.133 0 .267.13.267.304v13.062c0 .175-.127.304-.267.304h-4.735a1.13 1.13 0 0 0-.829.363l-2.591 2.82a.875.875 0 0 1-1.29-.001l-2.585-2.826a1.125 1.125 0 0 0-.83-.365H2.203c-.135 0-.268-.123-.268-.304V3.313Z" fill="#D1327F" stroke="#D1327F" stroke-width=".25"/><path d="M10.81 4.585a.2.2 0 0 1 .38 0l1.112 3.423a.2.2 0 0 0 .19.138h3.599a.2.2 0 0 1 .117.362l-2.91 2.115a.2.2 0 0 0-.073.223l1.111 3.423a.2.2 0 0 1-.307.223l-2.911-2.115a.2.2 0 0 0-.236 0l-2.91 2.115a.2.2 0 0 1-.309-.223l1.112-3.423a.2.2 0 0 0-.072-.223L5.792 8.508a.2.2 0 0 1 .117-.362h3.599a.2.2 0 0 0 .19-.138l1.112-3.423Z" fill="#D1327F"/></svg>