<svg width="27" height="20" fill="none" xmlns="http://www.w3.org/2000/svg"><path d="M24.622 2.851a.646.646 0 0 0-.183-.174.612.612 0 0 0-.48-.073.62.62 0 0 0-.223.112L13.53 10.742a.204.204 0 0 1-.253 0L3.27 2.68a.62.62 0 0 0-.468-.13.612.612 0 0 0-.234.084.645.645 0 0 0-.185.172.682.682 0 0 0-.124.493.69.69 0 0 0 .243.441l7.868 6.34-7.781 6.178a.695.695 0 0 0 .055 1.114.616.616 0 0 0 .482.074.622.622 0 0 0 .224-.113l8.065-6.413 1.092.889a1.42 1.42 0 0 0 1.778.013l1.148-.902 8.159 6.414a.619.619 0 0 0 .47.125.612.612 0 0 0 .232-.087.68.68 0 0 0 .303-.669.692.692 0 0 0-.082-.245.657.657 0 0 0-.166-.193l-7.86-6.187 8.006-6.3a.694.694 0 0 0 .129-.927Z" fill="#D1327F"/><path d="M23.836 0H3.164C2.324 0 1.52.351.927.976A3.426 3.426 0 0 0 0 3.333v13.334c0 .884.333 1.732.927 2.357A3.085 3.085 0 0 0 3.164 20h20.672c.84 0 1.644-.351 2.237-.976A3.426 3.426 0 0 0 27 16.667V3.333c0-.884-.333-1.732-.927-2.357A3.085 3.085 0 0 0 23.836 0Zm1.898 16.667c0 .53-.2 1.039-.556 1.414a1.85 1.85 0 0 1-1.342.586H3.164a1.85 1.85 0 0 1-1.342-.586 2.056 2.056 0 0 1-.556-1.414V3.333c0-.53.2-1.039.556-1.414a1.85 1.85 0 0 1 1.342-.586h20.672c.503 0 .986.211 1.342.586.356.375.556.884.556 1.414v13.334Z" fill="#D1327F"/></svg>