<svg width="22" height="27" fill="none" xmlns="http://www.w3.org/2000/svg"><path fill-rule="evenodd" clip-rule="evenodd" d="M11 27S0 21.473 0 10.565C0 4.73 4.925 0 11 0s11 4.73 11 10.565C22 21.473 11 27 11 27Zm0-25.826c-5.391 0-9.778 4.213-9.778 9.391 0 8.662 7.616 13.794 9.78 15.077 2.166-1.277 9.776-6.387 9.776-15.077 0-5.178-4.387-9.391-9.778-9.391Zm0 14.674c-3.038 0-5.5-2.365-5.5-5.283S7.962 5.283 11 5.283s5.5 2.364 5.5 5.282-2.462 5.283-5.5 5.283Zm0-9.391c-2.363 0-4.278 1.839-4.278 4.108 0 2.27 1.915 4.109 4.278 4.109 2.363 0 4.278-1.84 4.278-4.109S13.363 6.457 11 6.457Z" fill="#D1327F"/></svg>