<svg width="20" height="23" fill="none" xmlns="http://www.w3.org/2000/svg"><path fill-rule="evenodd" clip-rule="evenodd" d="M20 6.688V19.75c0 .73-.301 1.429-.837 1.945a2.915 2.915 0 0 1-2.02.805h-1.429v-1.375h1.429c.379 0 .742-.145 1.01-.403a1.35 1.35 0 0 0 .418-.972V6.687h-2.857a2.186 2.186 0 0 1-1.515-.604 2.024 2.024 0 0 1-.628-1.458v-2.75H5.714c-.379 0-.742.145-1.01.403a1.35 1.35 0 0 0-.418.972v12.375H2.857V3.25c0-.73.301-1.429.837-1.945A2.915 2.915 0 0 1 5.714.5h7.857L20 6.688ZM2.286 16.794H0v5.498h1.13v-1.845h1.147c.41 0 .759-.078 1.046-.238.29-.16.511-.378.661-.651a1.89 1.89 0 0 0 .23-.931 1.92 1.92 0 0 0-.225-.931 1.647 1.647 0 0 0-.658-.656c-.285-.165-.632-.246-1.045-.246Zm.778 1.833a1.06 1.06 0 0 1-.121.522.804.804 0 0 1-.34.331 1.17 1.17 0 0 1-.536.113h-.941V17.66h.943c.311 0 .555.082.731.249.176.168.264.407.264.718Zm1.739-1.833v5.498h2.086c.572 0 1.048-.11 1.425-.326.382-.22.68-.551.85-.947.186-.412.28-.91.28-1.49 0-.578-.093-1.07-.28-1.479a1.985 1.985 0 0 0-.841-.934c-.377-.215-.856-.322-1.436-.322H4.803Zm1.13.887h.804c.354 0 .643.068.87.209.236.148.414.368.506.624.113.276.168.621.168 1.035a3.05 3.05 0 0 1-.097.814c-.05.21-.146.408-.28.58a1.14 1.14 0 0 1-.477.347c-.22.08-.455.118-.69.113h-.804V17.68Zm5.347 2.424v2.187h-1.129v-5.498h3.64v.898H11.28v1.535h2.294v.878H11.28Z" fill="#D1327F"/></svg>