<svg width="80" height="80" fill="none" xmlns="http://www.w3.org/2000/svg"><rect width="80" height="80" rx="5" fill="#D1327F"/><path d="M53.75 40c7.594 0 13.75 6.156 13.75 13.75 0 7.593-6.156 13.75-13.75 13.75C46.157 67.5 40 61.343 40 53.75 40 46.155 46.157 40 53.75 40Zm-13.694 4.998A16.173 16.173 0 0 0 37.5 53.75c0 4.075 1.5 7.8 3.98 10.653-1.99.4-4.151.599-6.48.599-8.552 0-14.86-2.68-18.715-8.091a6.875 6.875 0 0 1-1.276-3.99v-2.3A5.622 5.622 0 0 1 20.631 45l19.425-.001Zm7.078 7.867a1.25 1.25 0 0 0-1.767 1.768l5 5a1.25 1.25 0 0 0 1.767 0l10-10a1.25 1.25 0 0 0-1.767-1.768l-9.117 9.117-4.116-4.117ZM35 15.011c6.904 0 12.5 5.596 12.5 12.5s-5.596 12.5-12.5 12.5c-6.903 0-12.5-5.596-12.5-12.5s5.597-12.5 12.5-12.5Z" fill="#F1EDF3"/></svg>