<svg width="30" height="30" viewBox="0 0 30 30" fill="none" xmlns="http://www.w3.org/2000/svg">
<path d="M0 15C0 12.0333 0.879734 9.13319 2.52796 6.66645C4.17618 4.19972 6.51886 2.27713 9.25975 1.14181C12.0006 0.00649941 15.0166 -0.290551 17.9264 0.288228C20.8361 0.867006 23.5088 2.29562 25.6066 4.3934C27.7044 6.49119 29.133 9.16394 29.7118 12.0737C30.2906 14.9834 29.9935 17.9994 28.8582 20.7403C27.7229 23.4812 25.8003 25.8238 23.3335 27.4721C20.8668 29.1203 17.9667 30 15 30C11.0218 30 7.20644 28.4197 4.3934 25.6066C1.58035 22.7936 0 18.9783 0 15ZM28 15C28 12.4288 27.2376 9.91543 25.8091 7.77759C24.3806 5.63975 22.3503 3.97351 19.9749 2.98957C17.5994 2.00563 14.9856 1.74819 12.4638 2.2498C9.94207 2.75141 7.62569 3.98954 5.80761 5.80762C3.98953 7.6257 2.7514 9.94208 2.24979 12.4638C1.74818 14.9856 2.00563 17.5995 2.98957 19.9749C3.9735 22.3503 5.63975 24.3807 7.77759 25.8091C9.91542 27.2376 12.4288 28 15 28C18.4478 28 21.7544 26.6304 24.1924 24.1924C26.6304 21.7544 28 18.4478 28 15Z" fill="#F1EDF3"/>
<path d="M11.13 20.59L16.71 15L11.13 9.41002C10.9437 9.22266 10.8392 8.96921 10.8392 8.70502C10.8392 8.44084 10.9437 8.18738 11.13 8.00002C11.3173 7.81377 11.5708 7.70923 11.835 7.70923C12.0992 7.70923 12.3526 7.81377 12.54 8.00002L18.9 14.36C19.0685 14.5304 19.163 14.7604 19.163 15C19.163 15.2397 19.0685 15.4697 18.9 15.64L12.54 22C12.3526 22.1863 12.0992 22.2908 11.835 22.2908C11.5708 22.2908 11.3173 22.1863 11.13 22C10.9437 21.8127 10.8392 21.5592 10.8392 21.295C10.8392 21.0308 10.9437 20.7774 11.13 20.59Z" fill="#F1EDF3"/>
</svg>
