<svg width="32" height="32" viewBox="0 0 32 32" fill="none" xmlns="http://www.w3.org/2000/svg">
<path d="M30.9481 15.6364C31.4189 15.1544 31.749 14.5526 31.9026 13.8963C32.0563 13.2399 32.0276 12.554 31.8198 11.9127C31.6281 11.2753 31.2605 10.705 30.7593 10.2676C30.2581 9.8301 29.6438 9.54325 28.9869 9.44002L22.5366 8.48002C22.4236 8.46357 22.3165 8.41901 22.2251 8.3504C22.1338 8.28178 22.0611 8.19132 22.0136 8.08729L19.1081 2.02184C18.8347 1.42737 18.3993 0.922247 17.8518 0.564577C17.3044 0.206907 16.6673 0.0112171 16.0137 1.76782e-05C15.3479 -0.00211698 14.6957 0.189112 14.1361 0.550541C13.5766 0.91197 13.1338 1.42809 12.8612 2.03638L9.95571 8.11638C9.90943 8.22121 9.83703 8.31238 9.74546 8.38115C9.65388 8.44991 9.54619 8.49398 9.43272 8.50911L2.99698 9.51274C2.34084 9.61353 1.72706 9.89976 1.22781 10.3378C0.728552 10.7758 0.364562 11.3474 0.178624 11.9855C-0.0290366 12.6278 -0.056202 13.315 0.100101 13.9717C0.256403 14.6285 0.590149 15.2296 1.06481 15.7091L5.8444 20.4364C5.92598 20.5166 5.98706 20.6153 6.02246 20.7242C6.05787 20.8331 6.06655 20.9489 6.04778 21.0618L4.95821 27.7527C4.85105 28.4209 4.92996 29.1056 5.18626 29.7318C5.44256 30.3579 5.86632 30.9012 6.41097 31.3018C6.99359 31.7526 7.70857 31.998 8.44484 32C9.01837 31.9967 9.58224 31.8518 10.0865 31.5782L15.8975 28.4073C15.9969 28.3498 16.1096 28.3196 16.2244 28.3196C16.3391 28.3196 16.4519 28.3498 16.5513 28.4073L22.3623 31.5491C22.9375 31.8615 23.5908 32.0003 24.2431 31.9487C24.8954 31.897 25.5188 31.6572 26.0378 31.2582C26.5824 30.8541 27.0058 30.3082 27.262 29.6798C27.5182 29.0515 27.5972 28.3648 27.4906 27.6946L26.3719 21.0182C26.3513 20.9042 26.3576 20.7869 26.3904 20.6757C26.4232 20.5646 26.4816 20.4627 26.5608 20.3782L30.9481 15.6364ZM24.3235 18.2982C23.9102 18.7147 23.6002 19.2226 23.4185 19.7809C23.2368 20.3392 23.1886 20.9324 23.2775 21.5127L24.3962 28.2037C24.4229 28.3329 24.4126 28.4671 24.3663 28.5906C24.32 28.7142 24.2397 28.8221 24.1347 28.9018C24.0265 28.972 23.9004 29.0093 23.7715 29.0093C23.6426 29.0093 23.5165 28.972 23.4083 28.9018L17.5972 25.76C17.0981 25.4876 16.5387 25.3448 15.9701 25.3448C15.4016 25.3448 14.8422 25.4876 14.3431 25.76L8.53201 28.9309C8.42382 29.0011 8.2977 29.0384 8.16882 29.0384C8.03994 29.0384 7.91381 29.0011 7.80563 28.9309C7.69659 28.8542 7.61235 28.7472 7.5633 28.6232C7.51426 28.4991 7.50254 28.3634 7.5296 28.2327L8.74992 21.5564C8.84449 20.9794 8.80311 20.3883 8.62907 19.8302C8.45504 19.2721 8.15316 18.7624 7.74752 18.3418L3.05509 13.6146C2.97141 13.5154 2.91636 13.3953 2.89588 13.2671C2.8754 13.139 2.89027 13.0076 2.93887 12.8873C2.97627 12.7593 3.04951 12.6447 3.14991 12.557C3.25032 12.4694 3.3737 12.4124 3.50545 12.3927L9.94119 11.4037C10.4966 11.3035 11.0195 11.0698 11.4649 10.7227C11.9102 10.3756 12.2648 9.92547 12.498 9.41093L15.4036 3.31638C15.4546 3.19633 15.5395 3.09382 15.6479 3.02146C15.7563 2.9491 15.8834 2.91005 16.0137 2.90911C16.1449 2.90596 16.274 2.94153 16.3851 3.01136C16.4962 3.0812 16.5843 3.18222 16.6384 3.30184L19.5439 9.38183C19.789 9.90048 20.1564 10.3516 20.6145 10.6963C21.0727 11.0409 21.6077 11.2687 22.1734 11.36L28.6237 12.32C28.753 12.3358 28.8747 12.39 28.973 12.4755C29.0714 12.561 29.142 12.674 29.1758 12.8C29.2216 12.9273 29.2295 13.0651 29.1986 13.1968C29.1676 13.3285 29.0991 13.4484 29.0014 13.5418L24.3235 18.2982Z" fill="#F1EDF3"/>
</svg>
