<svg width="50" height="26" viewBox="0 0 50 26" fill="none" xmlns="http://www.w3.org/2000/svg">
<path d="M5.83199 0.908301L25 18.3377L44.168 0.908303C44.8105 0.32654 45.6796 -1.95365e-07 46.5854 -1.54402e-07C47.4913 -1.13439e-07 48.3604 0.32654 49.0029 0.908303V0.908303C49.6415 1.49354 50 2.28521 50 3.1104C50 3.9356 49.6415 4.72727 49.0029 5.3125L27.1945 25.1782C26.6104 25.7047 25.8218 26 25 26C24.1782 26 23.3896 25.7047 22.8055 25.1782L0.997123 5.3125C0.358471 4.72726 3.39542e-07 3.9356 3.7441e-07 3.1104C4.09278e-07 2.2852 0.358472 1.49354 0.997123 0.908301V0.908301C1.63959 0.326538 2.50867 -2.1475e-06 3.41456 -2.10653e-06C4.32044 -2.06557e-06 5.18953 0.326538 5.83199 0.908301Z" fill="#D1327F"/>
</svg>
