<svg width="32" height="32" fill="none" xmlns="http://www.w3.org/2000/svg"><path d="M25 31H7c-1.1 0-2-.9-2-2V3c0-1.1.9-2 2-2h18c1.1 0 2 .9 2 2v26c0 1.1-.9 2-2 2Z" stroke="#F1EDF3" stroke-width="2" stroke-miterlimit="10" stroke-linecap="round" stroke-linejoin="round"/><path d="M23 5H9v4h14V5Zm-7 10a1 1 0 1 0 0-2 1 1 0 0 0 0 2Zm6 0a1 1 0 1 0 0-2 1 1 0 0 0 0 2Zm-12 0a1 1 0 1 0 0-2 1 1 0 0 0 0 2Zm6 6a1 1 0 1 0 0-2 1 1 0 0 0 0 2Zm6 0a1 1 0 1 0 0-2 1 1 0 0 0 0 2Zm-12 0a1 1 0 1 0 0-2 1 1 0 0 0 0 2Zm6 6a1 1 0 1 0 0-2 1 1 0 0 0 0 2Zm6 0a1 1 0 1 0 0-2 1 1 0 0 0 0 2Zm-12 0a1 1 0 1 0 0-2 1 1 0 0 0 0 2Z" stroke="#F1EDF3" stroke-width="2" stroke-miterlimit="10" stroke-linecap="round" stroke-linejoin="round"/></svg>