<svg width="40" height="40" fill="none" xmlns="http://www.w3.org/2000/svg"><circle cx="20" cy="20" r="19" stroke="#F1EDF3" stroke-width="2"/><path d="M11.705 28.295c.247.248.495.372.866.372.372 0 .62-.124.867-.372L20 21.733l6.562 6.562c.247.248.619.372.866.372.248 0 .62-.124.867-.372a1.197 1.197 0 0 0 0-1.733L21.733 20l6.562-6.562a1.197 1.197 0 0 0 0-1.733 1.197 1.197 0 0 0-1.733 0L20 18.267l-6.562-6.562a1.197 1.197 0 0 0-1.733 0 1.197 1.197 0 0 0 0 1.733L18.267 20l-6.562 6.562a1.197 1.197 0 0 0 0 1.733Z" fill="#F1EDF3"/></svg>