<svg width="29" height="29" fill="none" xmlns="http://www.w3.org/2000/svg"><path d="M17.435 20.267s2.278-1.304 2.874-1.617c.595-.315 1.21-.394 1.585-.166.566.347 5.323 3.511 5.723 3.791.4.28.593 1.082.043 1.868-.549.785-3.079 3.89-4.15 3.857-1.075-.035-5.54-.133-13.958-8.554C1.134 11.027 1.035 6.56 1 5.488.966 4.414 4.071 1.884 4.856 1.335c.787-.549 1.59-.342 1.868.043.318.44 3.445 5.181 3.79 5.725.235.37.149.99-.166 1.585-.313.596-1.617 2.874-1.617 2.874s.92 1.568 4.028 4.676c3.109 3.108 4.676 4.029 4.676 4.029Z" stroke="#D1327F" stroke-miterlimit="10"/></svg>