<svg width="30" height="31" fill="none" xmlns="http://www.w3.org/2000/svg"><path d="M29.607.82c-.423-.402-1.105-.438-2.275-.036-.813.292-8.027 3.363-14.397 6.323-5.72 2.668-10.366 5.008-10.919 5.3-.617.22-1.95.877-2.014 1.9-.033.659.454 1.244 1.397 1.719 1.007.585 5.46 2.266 6.402 2.595.325 1.243 2.242 8.516 2.34 8.955.13.658.52 1.023.715 1.17a.73.73 0 0 0 .162.146c.098.073.228.11.39.11.228 0 .488-.11.715-.293 1.202-1.096 3.282-3.546 3.867-4.24 2.567 2.266 5.362 4.788 5.622 5.08l.033.037c.617.585 1.267.914 1.852.914.195 0 .39-.037.585-.11.682-.256 1.17-.986 1.332-1.973 0-.037.033-.183.098-.439a592.043 592.043 0 0 0 2.697-14.145c.683-3.911 1.235-7.75 1.56-9.796.065-.512.13-.914.163-1.17.097-.73.162-1.571-.325-2.047ZM8.483 18.511l15.502-11.55c.032-.037.097-.073.13-.11.032 0 .032-.036.064-.036.033 0 .033 0 .065-.037-.032.037-.065.146-.13.22l-3.932 4.13c-2.73 2.814-6.304 6.506-8.676 8.918v.037l-.033.037s0 .036-.033.036c0 .037 0 .037-.032.073v.073c-.162 2.047-.455 5.556-.585 7.128v-.037c-.13-.439-1.95-7.42-2.34-8.882Z" fill="#F1EDF3"/></svg>