<svg width="30" height="31" fill="none" xmlns="http://www.w3.org/2000/svg"><path fill-rule="evenodd" clip-rule="evenodd" d="M21.873 18.413c-.373-.186-2.209-1.085-2.55-1.209-.343-.124-.591-.186-.84.186-.25.372-.964 1.209-1.182 1.457-.218.248-.436.279-.809.093-.373-.186-1.576-.578-3.001-1.844-1.11-.985-1.859-2.201-2.076-2.573-.218-.372-.024-.573.163-.758.168-.167.373-.434.56-.651.187-.217.249-.372.373-.62.125-.248.063-.464-.03-.65-.094-.186-.84-2.015-1.152-2.758-.303-.725-.61-.627-.84-.638-.217-.01-.466-.013-.715-.013-.248 0-.653.093-.995.465-.342.371-1.306 1.27-1.306 3.098 0 1.829 1.337 3.595 1.524 3.843.186.248 2.632 4 6.376 5.609.89.382 1.585.61 2.127.782.894.283 1.708.243 2.351.147.717-.106 2.208-.898 2.52-1.766.31-.868.31-1.611.217-1.766-.093-.155-.342-.248-.715-.434m-6.81 9.254h-.005a12.447 12.447 0 0 1-6.32-1.723l-.453-.267-4.699 1.226 1.255-4.56-.296-.467a12.282 12.282 0 0 1-1.898-6.575C2.65 8.488 8.22 2.946 15.067 2.946a12.36 12.36 0 0 1 8.778 3.623 12.252 12.252 0 0 1 3.633 8.742c-.003 6.813-5.572 12.356-12.415 12.356M25.629 4.795A14.877 14.877 0 0 0 15.063.435C6.829.435.128 7.104.125 15.3a14.785 14.785 0 0 0 1.994 7.432L0 30.435l7.918-2.067a14.98 14.98 0 0 0 7.139 1.81h.006c8.232 0 14.934-6.67 14.937-14.866a14.74 14.74 0 0 0-4.37-10.517" fill="#F1EDF3"/></svg>