<svg width="80" height="80" fill="none" xmlns="http://www.w3.org/2000/svg"><rect width="80" height="80" rx="5" fill="#D1327F"/><g clip-path="url(#a)" fill="#F1EDF3"><path d="M65 18h-7v-2h3a2.006 2.006 0 0 0 2-2v-2a2.006 2.006 0 0 0-2-2H48a2.006 2.006 0 0 0-2 2v2a2.006 2.006 0 0 0 2 2h3v2H29v-2h3a2.006 2.006 0 0 0 2-2v-2a2.006 2.006 0 0 0-2-2H19a2.006 2.006 0 0 0-2 2v2a2.006 2.006 0 0 0 2 2h3v2h-7a5 5 0 0 0-5 5v27a5 5 0 0 0 5 5h10v2a3.01 3.01 0 0 0 3 3h5v9a1 1 0 0 0 1 1h12a1 1 0 0 0 1-1v-9h5a3.01 3.01 0 0 0 3-3v-2h10a5 5 0 0 0 5-5V23a5 5 0 0 0-5-5Zm3 31H12V23a3.01 3.01 0 0 1 3-3h50a3.01 3.01 0 0 1 3 3v26Z"/><path d="M34.375 33.438a3.75 3.75 0 1 0 0-7.5 3.75 3.75 0 0 0 0 7.5Zm11.25 11.25a3.75 3.75 0 1 0 0-7.5 3.75 3.75 0 0 0 0 7.5Z"/></g><defs><clipPath id="a"><path fill="#fff" transform="translate(10 10)" d="M0 0h60v60H0z"/></clipPath></defs></svg>