<svg width="80" height="80" fill="none" xmlns="http://www.w3.org/2000/svg"><rect width="80" height="80" rx="5" fill="#D1327F"/><g clip-path="url(#a)" fill="#F1EDF3"><path d="M69.438 49.188c-.188-.938-1.313-1.5-2.25-1.313-1.313.375-2.25 0-2.438-.375-.188-.375 0-1.313.938-2.438.75-.75.75-1.874 0-2.624-1.876-1.876-4.126-3.188-6.75-3.938-.938-.188-2.063.375-2.25 1.313-.376 1.312-1.126 1.874-1.688 1.874-.563 0-1.125-.75-1.688-1.874-.374-.938-1.312-1.5-2.25-1.313-2.624.75-4.874 2.063-6.75 3.938-.75.75-.75 1.874 0 2.624.938.938 1.126 1.876.938 2.438-.188.375-1.125.75-2.438.375-.937-.188-2.062.375-2.25 1.313A14.273 14.273 0 0 0 40 53.124c0 1.313.188 2.625.563 3.938.187.937 1.312 1.5 2.25 1.312 1.312-.375 2.25 0 2.437.375.188.375 0 1.313-.938 2.438-.75.75-.75 1.874 0 2.624 1.876 1.876 4.126 3.188 6.75 3.938h.563c.75 0 1.5-.563 1.875-1.313.375-1.312 1.125-1.874 1.688-1.874.562 0 1.124.75 1.687 1.874.375.938 1.313 1.5 2.25 1.313 2.625-.75 4.875-2.063 6.75-3.938.75-.75.75-1.874 0-2.624-.938-.938-1.125-1.876-.938-2.438.188-.375 1.126-.75 2.438-.375.938.188 2.063-.375 2.25-1.313.375-1.312.563-2.624.563-3.937 0-1.313-.376-2.625-.75-3.938ZM55 60.624c-4.125 0-7.5-3.375-7.5-7.5s3.375-7.5 7.5-7.5 7.5 3.375 7.5 7.5-3.375 7.5-7.5 7.5Z"/><path d="M36.25 53.125c0-2.25.375-4.313 1.125-6.188v-.374l.188-.188c.937-2.25 2.062-4.125 3.562-5.813.188-.75.375-1.312.563-2.062 0-.563 0-1.125-.376-1.5-.374-.375-.937-.75-1.5-.75-2.062 0-3.937-.75-5.437-1.875h11.25c1.125 0 1.875-.75 1.875-1.875s-.75-1.875-1.875-1.875h-.375v-.375c0-3.375-1.125-6.375-3-9l-1.313 4.688c-.187.75-.937 1.312-1.874 1.312H38.5c-.938-.375-1.5-1.313-1.313-2.25l2.25-7.688c0-.562-.374-1.125-.937-1.5a17.474 17.474 0 0 0-15.563 0c-.75 0-.937.75-1.125 1.313l2.25 7.688c.375.937-.375 2.062-1.312 2.25h-.563c-.75 0-1.5-.563-1.875-1.313l-1.125-4.5c-1.875 2.625-3 5.625-3 9v.375h-.562c-1.125 0-1.875.75-1.875 1.875s.75 1.875 1.875 1.875h3.75v1.875c0 4.125 1.688 7.875 4.5 10.313-.375 2.624-2.063 4.874-4.688 5.624-4.687 1.313-8.25 5.438-9.375 10.688-.187.938 0 1.688.563 2.438.75.562 1.5.937 2.438.937h28.874a18.577 18.577 0 0 1-5.437-13.125Z"/></g><defs><clipPath id="a"><path fill="#fff" transform="translate(10 10)" d="M0 0h60v60H0z"/></clipPath></defs></svg>