<svg width="80" height="80" fill="none" xmlns="http://www.w3.org/2000/svg"><rect width="80" height="80" rx="5" fill="#D1327F"/><path d="M66.667 29.625c2 0 3.333-1.25 3.333-3.125s-1.333-3.125-3.333-3.125h-50v-6.25c0-1.875-1.334-3.125-3.334-3.125S10 15.25 10 17.125v18.75C10 37.75 11.333 39 13.333 39s3.334-1.25 3.334-3.125v-6.25H30v3.125c-5.667 0-10 4.063-10 9.375v12.5C20 59.938 24.333 64 30 64h30c5.667 0 10-4.063 10-9.375v-12.5c0-5.313-4.333-9.375-10-9.375v-3.125h6.667Zm-30 0h16.666v3.125H36.667v-3.125Zm26.666 12.5v12.5C63.333 56.5 62 57.75 60 57.75H30c-2 0-3.333-1.25-3.333-3.125v-12.5C26.667 40.25 28 39 30 39h30c2 0 3.333 1.25 3.333 3.125Z" fill="#F1EDF3"/><path d="M43.333 45.25h-10c-2 0-3.333 1.25-3.333 3.125s1.333 3.125 3.333 3.125h10c2 0 3.334-1.25 3.334-3.125s-1.334-3.125-3.334-3.125Z" fill="#F1EDF3"/></svg>