<svg width="80" height="80" viewBox="0 0 80 80" fill="none" xmlns="http://www.w3.org/2000/svg">
<rect width="80" height="80" rx="5" fill="#D1327F"/>
<g clip-path="url(#clip0_121_11)">
<path d="M57.5 10H22.5C19.186 10.004 16.0089 11.3222 13.6655 13.6655C11.3222 16.0089 10.004 19.186 10 22.5L10 57.5C10.004 60.814 11.3222 63.9911 13.6655 66.3345C16.0089 68.6778 19.186 69.996 22.5 70H57.5C60.814 69.996 63.9911 68.6778 66.3345 66.3345C68.6778 63.9911 69.996 60.814 70 57.5V22.5C69.996 19.186 68.6778 16.0089 66.3345 13.6655C63.9911 11.3222 60.814 10.004 57.5 10V10ZM65 57.5C65 59.4891 64.2098 61.3968 62.8033 62.8033C61.3968 64.2098 59.4891 65 57.5 65H22.5C20.5109 65 18.6032 64.2098 17.1967 62.8033C15.7902 61.3968 15 59.4891 15 57.5V22.5C15 20.5109 15.7902 18.6032 17.1967 17.1967C18.6032 15.7902 20.5109 15 22.5 15H57.5C59.4891 15 61.3968 15.7902 62.8033 17.1967C64.2098 18.6032 65 20.5109 65 22.5V57.5Z" fill="#F1EDF3"/>
<path d="M57.5 27.5H22.5C21.837 27.5 21.2011 27.7634 20.7322 28.2322C20.2634 28.7011 20 29.337 20 30C20 30.663 20.2634 31.2989 20.7322 31.7678C21.2011 32.2366 21.837 32.5 22.5 32.5H57.5C58.163 32.5 58.7989 32.2366 59.2678 31.7678C59.7366 31.2989 60 30.663 60 30C60 29.337 59.7366 28.7011 59.2678 28.2322C58.7989 27.7634 58.163 27.5 57.5 27.5Z" fill="#F1EDF3"/>
<path d="M22.5 25C23.8807 25 25 23.8807 25 22.5C25 21.1193 23.8807 20 22.5 20C21.1193 20 20 21.1193 20 22.5C20 23.8807 21.1193 25 22.5 25Z" fill="#F1EDF3"/>
<path d="M32.5 25C33.8807 25 35 23.8807 35 22.5C35 21.1193 33.8807 20 32.5 20C31.1193 20 30 21.1193 30 22.5C30 23.8807 31.1193 25 32.5 25Z" fill="#F1EDF3"/>
<path d="M57.5 25C58.8807 25 60 23.8807 60 22.5C60 21.1193 58.8807 20 57.5 20C56.1193 20 55 21.1193 55 22.5C55 23.8807 56.1193 25 57.5 25Z" fill="#F1EDF3"/>
</g>
<defs>
<clipPath id="clip0_121_11">
<rect width="60" height="60" fill="white" transform="translate(10 10)"/>
</clipPath>
</defs>
</svg>
